Patient4_TMGait_0pt3_03_left_30_EMG.mot
version=1
nRows=13
nColumns=33
inDegrees=no
endheader
time	1LAddLong	2LGlutMax	3LGlutMed	4LIliopsoas	5LSemiMemb	6LBicFemLong	7LRecFem	8LVastMed	9LVastLat	10LGasMed	11LTibAnt	12lTibPost	13LPeroneusLong	14LSol	15LExtDigLong	16LFlexDigLong	17RAddLong	18RGlutMax	19RGlutMed	20RIliopsoas	21RSemiMemb	22RBicFemLong	23RRecFem	24RVastMed	25RVastLat	26RGasMed	27RTibAnt	28RTibPost	29RPeroneusLong	30RSol	31RExtDigLong	32RFlexDigLong
55.133	0.005493	-0.072327	-0.001831	-0.000763	-0.007935	0.057983	-0.049591	0.000458	-0.013428	-0.007935	-0.025787	0.006409	-0.004578	-0.026093	-0.003967	0.00351	-0.043488	0.11383	0.52399	-0.013123	0.12741	0.014496	0.51727	0.15488	0.38223	0.00473	0.027161	-0.045624	-0.92712	-0.36453	0.000153	-0.013428
55.134	0.001373	-0.095978	0.065308	-0.012817	-0.003204	0.067444	-0.028839	0.00351	-0.015564	-0.006866	0.002899	0.007935	-0.012054	-0.015717	-0.004578	0.011139	-0.028229	0.056458	0.78095	-0.010681	0.048676	0.025177	0.42893	-0.3331	0.094299	-0.017242	0.053406	-0.06485	-0.89798	-0.70038	0	-0.020294
55.135	0.010071	-0.092773	0.10254	0.003662	-0.005646	0.040741	-0.046539	0.007324	-0.011139	-0.014496	0.026245	0.002594	-0.018616	-0.023499	-0.007935	-0.000153	-0.00061	0.052795	-0.16007	0.041656	-0.010834	0.03006	0.18402	-0.3447	-0.23224	-0.037689	-0.011597	0.10498	-0.35629	-0.28168	0.006561	-0.014801
55.136	0.000916	-0.075836	0.05188	-0.000305	-0.00351	0.031128	-0.036163	-0.000153	0.001526	-0.015564	-0.000458	-0.006256	-0.013885	-0.011597	-0.005493	-0.007324	0.030518	0.13107	-0.26077	0.009308	-0.050659	-0.042877	0.38498	0.1207	-0.64331	-0.036621	-0.003662	-0.022736	-0.3865	-0.48904	0.001831	-0.012207
55.137	0.005188	-0.09491	0.014801	-0.009613	0.001221	0.024872	-0.034485	0.007782	0.000153	-0.005188	0.005798	-0.006104	-0.012665	-0.016022	-0.005035	0.001068	0.042114	0.18417	-0.005951	-0.030212	0.024719	-0.055542	0.62851	0.032654	-0.95673	-0.048065	0.021667	0.1857	0.33737	-0.70541	0.000763	-0.003815
55.138	0.003662	-0.067902	0.000763	-0.01236	-0.003662	0.029297	-0.026093	0.00351	-0.001831	-0.010376	-0.005951	0.004883	-0.008087	-0.031433	-0.014801	0.000153	0.041199	0.054474	0.75607	-0.05188	0.029297	-0.055847	0.51209	-0.041809	-0.78644	-0.039673	0.01297	0.21332	0.64438	-0.066833	-0.000763	-0.00473
55.139	0.005035	-0.089874	0.006409	-0.005341	-0.003662	0.016174	-0.028381	-0.001984	-0.010376	-0.010681	-0.021057	0.00351	-0.007629	-0.011139	-0.005188	0.011902	0.041962	-0.074768	0.24841	-0.059357	0.010376	-0.033875	0.46707	-0.01709	-0.54275	-0.075684	-0.008698	-0.062866	0.84885	0.61081	0.00061	0.000305
55.14	0.00412	-0.068665	-0.023193	0.048828	-0.006104	0.03006	-0.039063	0.000305	-0.000305	-0.016632	-0.009308	0.005646	-0.007782	-0.009766	-0.00946	0.001678	0.02121	-0.12589	-0.18021	-0.018616	0.021515	-0.041199	0.18753	-0.1088	-0.093079	-0.084534	0.065002	-0.61981	-0.41657	0.1915	0.001526	-0.016479
55.141	0.005188	-0.073395	-0.11047	0.030823	-0.007629	0.040588	-0.006866	0.001831	-0.002289	-0.023346	-0.017853	-0.000153	0.006409	-0.009766	-0.007935	0.00473	0.009155	-0.036926	0.21103	-0.033722	0.013885	0.023804	-0.45654	-0.1236	0.30289	-0.053711	0.063782	-0.15396	-0.68237	0.20218	0.002594	-0.014038
55.142	0.01236	-0.047302	-0.103	0.015869	-0.000916	0.031128	-0.026093	0.011139	-0.010986	-0.00885	-0.010223	0.011292	-0.002594	-0.00824	-0.008087	0.003815	0.002594	-0.085449	0.48706	-0.033112	-0.037231	0.096741	-0.63507	0.10529	0.42389	-0.053864	-0.075073	0.22507	1.7508	0.6427	0.003204	-0.007019
55.143	0.007629	-0.047913	-0.1033	-0.002747	0.000305	0.017395	-0.019836	0.001221	0.004425	-0.021362	0.007629	0.000153	0.008545	-0.019836	-0.002594	0.001526	-0.009308	-0.000305	0.61951	-0.027161	-0.065308	0.12619	-0.4805	0.27954	0.24933	-0.036316	-0.15656	0.16693	2.3708	0.52185	-0.000305	-0.00885
55.144	0.006714	-0.052338	-0.051575	-0.013885	-0.003204	0.052338	-0.01236	-0.001831	-0.004272	-0.012512	0.03067	0.004425	-0.003204	-0.018005	-0.001831	-0.000916	0.002441	-0.11337	-0.25406	-0.023193	-0.082703	0.10101	-0.39261	0.30609	-0.008698	-0.017395	-0.028381	0.34347	0.3418	0.35446	-0.000458	-0.015411
55.145	0.002441	-0.069885	0.076752	-0.021667	-0.002747	0.024261	-0.027313	0.003815	0.000153	-0.022583	0.063324	0.001984	0.005493	-0.015869	-0.009308	-0.004272	0.016327	-0.011139	-0.37369	-0.20859	0	0.063629	-0.22797	0.21866	-0.16754	-0.004272	0.1265	0.18219	0.050964	-0.035248	-0.004425	-0.014038
